<svg xmlns="http://www.w3.org/2000/svg" width="32.293" height="25.835" viewBox="0 0 32.293 25.835">
  <path id="Path_19931" data-name="Path 19931" d="M31.064,4H5.229A3.225,3.225,0,0,0,2.016,7.229L2,26.605a3.239,3.239,0,0,0,3.229,3.229H31.064a3.239,3.239,0,0,0,3.229-3.229V7.229A3.239,3.239,0,0,0,31.064,4Zm-.646,6.862L19,18a1.633,1.633,0,0,1-1.712,0L5.875,10.862A1.371,1.371,0,1,1,7.328,8.537L18.147,15.3,28.965,8.537a1.371,1.371,0,1,1,1.453,2.325Z" transform="translate(-2 -4)" fill="#aaaaa7"/>
</svg>
